<svg width="424.07451171875px" height="77.6px" xmlns="http://www.w3.org/2000/svg" viewBox="37.962744140625006 36.2 424.07451171875 77.6" style="background: rgba(0, 0, 0, 0);" preserveAspectRatio="xMidYMid"><defs><linearGradient id="editing-gradient-gradient" x1="0" x2="1" y1="0.5" y2="0.5" gradientUnits="objectBoundingBox"><stop offset="0" stop-color="#f0f"></stop><stop offset="1" stop-color="#00ffff"></stop></linearGradient></defs><g><g transform="translate(102.46183502674103, 92.2400016784668)"><path d="M25.16-4.73L25.16-4.73L25.16-4.73Q25.30-4.73 25.30-4.42L25.30-4.42L25.30-4.42Q25.30-4.11 25.14-3.67L25.14-3.67L25.14-3.67Q24.99-3.23 24.79-2.89L24.79-2.89L24.79-2.89Q24.58-2.55 24.41-2.38L24.41-2.38L24.41-2.38Q22.30-0.24 18.73 1.16L18.73 1.16L18.73 1.16Q15.16 2.55 11.90 2.55L11.90 2.55L11.90 2.55Q6.53 2.55 3.71-0.03L3.71-0.03L3.71-0.03Q0.88-2.62 0.88-7.14L0.88-7.14L0.88-7.14Q0.88-7.51 0.92-7.92L0.92-7.92L0.92-7.92Q1.12-11.73 3.76-15.25L3.76-15.25L3.76-15.25Q6.39-18.77 10.23-20.83L10.23-20.83L10.23-20.83Q14.08-22.88 17.85-22.88L17.85-22.88L17.85-22.88Q21.62-22.88 22.92-21.18L22.92-21.18L22.92-21.18Q23.22-22.10 23.22-22.51L23.22-22.51L23.22-22.51Q23.22-22.58 23.15-22.78L23.15-22.78L23.15-22.78Q23.09-22.98 23.12-23.10L23.12-23.10L23.12-23.10Q23.15-23.22 23.39-23.22L23.39-23.22L23.39-23.22Q23.66-23.22 23.94-23.09L23.94-23.09L23.94-23.09Q24.21-22.95 24.21-22.75L24.21-22.75L24.21-22.75Q24.21-22.34 24.09-21.91L24.09-21.91L24.09-21.91Q23.97-21.49 23.78-20.93L23.78-20.93L23.78-20.93Q23.60-20.37 23.53-20.13L23.53-20.13L23.53-20.13Q23.83-19.31 23.83-18.26L23.83-18.26L23.83-18.26Q23.83-15.95 22.81-15.95L22.81-15.95L22.81-15.95Q22.24-15.95 22.00-16.18L22.00-16.18L22.00-16.18Q21.76-16.42 21.76-16.93L21.76-16.93L21.76-16.93Q21.76-17.24 21.79-17.53L21.79-17.53L21.79-17.53Q21.83-17.82 21.91-18.12L21.91-18.12L21.91-18.12Q22.00-18.43 22.07-18.65L22.07-18.65L22.07-18.65Q22.13-18.87 22.25-19.23L22.25-19.23L22.25-19.23Q22.37-19.58 22.44-19.75L22.44-19.75L22.44-19.75Q21.86-20.71 20.64-21.32L20.64-21.32L20.64-21.32Q19.41-21.93 17.85-21.93L17.85-21.93L17.85-21.93Q14.25-21.93 10.79-19.98L10.79-19.98L10.79-19.98Q7.34-18.02 5.10-14.72L5.10-14.72L5.10-14.72Q2.86-11.42 2.65-7.79L2.65-7.79L2.65-7.79Q2.65-7.51 2.65-7.24L2.65-7.24L2.65-7.24Q2.65-3.26 5.42-0.80L5.42-0.80L5.42-0.80Q8.19 1.67 12.31 1.67L12.31 1.67L12.31 1.67Q14.11 1.67 15.74 1.33L15.74 1.33L15.74 1.33Q17.37 0.99 18.45 0.54L18.45 0.54L18.45 0.54Q19.52 0.10 20.60-0.63L20.60-0.63L20.60-0.63Q21.69-1.36 22.20-1.84L22.20-1.84L22.20-1.84Q22.71-2.31 23.43-3.03L23.43-3.03L23.43-3.03Q24.14-3.74 24.24-3.84L24.24-3.84L24.24-3.84Q24.34-4.01 24.68-4.37L24.68-4.37L24.68-4.37Q25.02-4.73 25.16-4.73ZM35.63-10.03L35.63-10.03L35.63-10.03Q35.36-9.66 34.90-9.30L34.90-9.30L34.90-9.30Q34.44-8.94 34.20-8.94L34.20-8.94L34.20-8.94Q34-8.94 34-9.15L34-9.15L34-9.15Q34-9.28 34.32-10.10L34.32-10.10L34.32-10.10Q34.65-10.91 34.65-11.22L34.65-11.22L34.65-11.22Q34.65-11.46 34.48-11.46L34.48-11.46L34.48-11.46Q33.29-11.46 30.96-7.79L30.96-7.79L30.96-7.79Q28.63-4.11 27.51-0.61L27.51-0.61L27.51-0.61Q27.30-0.34 26.86-0.07L26.86-0.07L26.86-0.07Q26.42 0.20 26.11 0.20L26.11 0.20L26.11 0.20Q25.91 0.20 25.81 0.03L25.81 0.03L25.81 0.03Q25.81-0.88 26.03-1.63L26.03-1.63L26.03-1.63Q26.25-2.38 26.59-2.52L26.59-2.52L26.59-2.52Q27.34-5.34 27.64-6.73L27.64-6.73L27.98-8.16L27.98-8.16Q28.05-8.40 28.05-8.70L28.05-8.70L28.05-8.70Q28.05-8.87 27.98-9.01L27.98-9.01L27.98-9.01Q27.91-9.15 27.91-9.28L27.91-9.28L27.91-9.28Q27.91-9.49 27.98-9.66L27.98-9.66L27.98-9.66Q28.53-11.80 29.09-12.58L29.09-12.58L29.09-12.58Q29.65-13.36 30.74-13.36L30.74-13.36L30.74-13.36Q31.14-13.36 31.21-13.09L31.21-13.09L31.21-13.09Q31.18-12.99 30.72-11.90L30.72-11.90L30.72-11.90Q30.26-10.81 29.87-9.86L29.87-9.86L29.87-9.86Q29.48-8.91 29.00-7.45L29.00-7.45L29.00-7.45Q28.53-5.98 28.25-4.76L28.25-4.76L28.25-4.76Q29.38-6.97 31.72-10.08L31.72-10.08L31.72-10.08Q34.07-13.19 35.60-13.19L35.60-13.19L35.60-13.19Q36.41-13.19 36.41-12.17L36.41-12.17L36.41-12.17Q36.41-11.12 35.63-10.03ZM43.72-10.57L43.72-10.57L43.72-10.57Q43.93-9.52 43.93-8.87L43.93-8.87L43.93-8.87Q43.93-8.13 43.42-7.60L43.42-7.60L43.42-7.60Q42.91-7.07 42.09-6.85L42.09-6.85L42.09-6.85Q41.28-6.63 40.63-6.55L40.63-6.55L40.63-6.55Q39.98-6.46 39.41-6.46L39.41-6.46L39.41-6.46Q39.07-6.46 38.64-6.48L38.64-6.48L38.64-6.48Q38.22-6.49 38.18-6.49L38.18-6.49L38.18-6.49Q37.06-3.64 37.06-2.01L37.06-2.01L37.06-2.01Q37.06-0.65 38.08-0.65L38.08-0.65L38.08-0.65Q38.79-0.65 39.75-1.55L39.75-1.55L39.75-1.55Q40.70-2.45 41.41-3.35L41.41-3.35L41.41-3.35Q42.13-4.25 42.26-4.25L42.26-4.25L42.26-4.25Q42.50-4.25 42.50-3.98L42.50-3.98L42.50-3.98Q42.50-3.03 40.63-1.34L40.63-1.34L40.63-1.34Q38.76 0.34 37.71 0.34L37.71 0.34L37.71 0.34Q36.86 0.34 36.16-0.19L36.16-0.19L36.16-0.19Q35.46-0.71 35.46-1.94L35.46-1.94L35.46-1.94Q35.46-2.31 35.56-2.82L35.56-2.82L35.56-2.82Q35.80-4.11 36.19-5.34L36.19-5.34L36.19-5.34Q36.58-6.56 36.62-6.83L36.62-6.83L36.62-6.83Q36.11-6.97 36.11-7.38L36.11-7.38L36.11-7.38Q36.11-7.75 36.69-7.75L36.69-7.75L36.92-7.75L36.92-7.75Q38.28-10.44 38.49-10.85L38.49-10.85L38.49-10.85Q39.44-12.65 42.13-12.65L42.13-12.65L42.13-12.65Q43.28-12.65 43.72-10.57ZM42.50-8.94L42.50-8.94L42.50-8.94Q42.50-9.79 42.33-10.40L42.33-10.40L42.33-10.40Q42.16-11.02 41.94-11.25L41.94-11.25L41.94-11.25Q41.72-11.49 41.48-11.49L41.48-11.49L41.48-11.49Q40.80-11.49 39.87-10.03L39.87-10.03L39.87-10.03Q38.93-8.57 38.49-7.45L38.49-7.45L38.49-7.45Q38.56-7.45 39.03-7.41L39.03-7.41L39.03-7.41Q39.51-7.38 39.85-7.38L39.85-7.38L39.85-7.38Q41.24-7.38 41.85-7.68L41.85-7.68L41.85-7.68Q42.47-7.99 42.50-8.94ZM54.67-2.72L54.67-2.72L54.67-2.72Q54.64-2.69 54.37-2.43L54.37-2.43L54.37-2.43Q54.09-2.18 53.92-2.04L53.92-2.04L53.92-2.04Q53.75-1.90 53.43-1.62L53.43-1.62L53.43-1.62Q53.11-1.33 52.87-1.16L52.87-1.16L52.87-1.16Q52.63-0.99 52.29-0.75L52.29-0.75L52.29-0.75Q51.95-0.51 51.70-0.39L51.70-0.39L51.70-0.39Q51.44-0.27 51.17-0.17L51.17-0.17L51.17-0.17Q50.90-0.07 50.66-0.07L50.66-0.07L50.66-0.07Q49.95-0.07 49.81-0.92L49.81-0.92L49.81-0.92Q49.81-2.35 50.93-6.19L50.93-6.19L50.93-6.19Q46.38 0.10 44.40 0.10L44.40 0.10L44.40 0.10Q43.59 0.10 43.59-1.12L43.59-1.12L43.59-1.12Q43.59-2.69 44.52-5.36L44.52-5.36L44.52-5.36Q45.46-8.02 46.82-10.18L46.82-10.18L46.82-10.18Q48.18-12.34 49.20-12.34L49.20-12.34L49.30-12.34L49.67-12.61L49.67-12.61Q49.98-12.95 50.63-12.95L50.63-12.95L50.63-12.95Q51.14-12.95 52.05-12.68L52.05-12.68L52.05-12.68Q52.97-12.41 53.07-12.41L53.07-12.41L53.07-12.41Q53.21-12.41 53.43-12.68L53.43-12.68L53.43-12.68Q53.65-12.95 53.96-12.95L53.96-12.95L53.96-12.95Q54.81-12.95 54.81-12.21L54.81-12.21L54.81-12.21Q54.81-11.90 54.69-11.53L54.69-11.53L54.69-11.53Q54.57-11.15 54.35-10.66L54.35-10.66L54.35-10.66Q54.13-10.17 54.09-10.06L54.09-10.06L54.09-10.06Q54.06-10.00 53.77-9.86L53.77-9.86L53.77-9.86Q53.48-9.72 53.45-9.62L53.45-9.62L53.45-9.62Q52.70-7.51 52.12-5.12L52.12-5.12L52.12-5.12Q51.54-2.72 51.54-2.18L51.54-2.18L51.54-2.18Q51.54-1.33 52.02-1.33L52.02-1.33L52.02-1.33Q52.50-1.33 53.19-1.90L53.19-1.90L53.19-1.90Q53.89-2.48 54.40-3.06L54.40-3.06L54.40-3.06Q54.91-3.64 54.94-3.64L54.94-3.64L54.94-3.64Q55.01-3.64 55.01-3.50L55.01-3.50L55.01-3.50Q55.01-2.99 54.67-2.72ZM52.53-11.76L52.43-11.76L52.43-11.76Q52.22-11.76 51.73-11.83L51.73-11.83L51.73-11.83Q51.24-11.90 50.90-11.90L50.90-11.90L50.90-11.90Q50.42-11.90 49.88-11.76L49.88-11.76L49.88-11.76Q49.03-11.53 47.09-7.74L47.09-7.74L47.09-7.74Q45.15-3.94 45.15-2.07L45.15-2.07L45.15-2.07Q45.15-1.50 45.49-1.50L45.49-1.50L45.49-1.50Q46.21-1.50 48.02-3.57L48.02-3.57L48.02-3.57Q49.84-5.64 50.42-6.53L50.42-6.53L50.42-6.53Q51.27-7.89 51.99-9.47L51.99-9.47L51.99-9.47Q52.70-11.05 52.70-11.56L52.70-11.56L52.70-11.56Q52.70-11.76 52.53-11.76L52.53-11.76ZM57.53-12.75L59.70-12.75L59.84-13.23L59.84-13.23Q59.94-13.63 59.94-13.80L59.94-13.80L59.94-13.80Q59.94-13.94 59.87-14.06L59.87-14.06L59.87-14.06Q59.81-14.18 59.81-14.28L59.81-14.28L59.81-14.28Q59.81-14.38 59.91-14.69L59.91-14.69L59.91-14.69Q60.59-16.86 61.15-17.58L61.15-17.58L61.15-17.58Q61.71-18.29 62.80-18.29L62.80-18.29L62.80-18.29Q63.27-18.29 63.34-17.99L63.34-17.99L63.34-17.99Q62.59-16.39 61.27-12.75L61.27-12.75L64.57-12.75L64.57-12.75Q65.52-12.75 65.52-12.55L65.52-12.55L65.52-12.55Q65.52-12.21 63.95-12.02L63.95-12.02L63.95-12.02Q62.39-11.83 60.96-11.83L60.96-11.83L60.96-11.83Q59.26-7.04 58.21-2.65L58.21-2.65L58.21-2.65Q58.04-1.97 58.04-1.67L58.04-1.67L58.04-1.67Q58.04-1.09 58.41-1.09L58.41-1.09L58.41-1.09Q59.09-1.09 60.40-2.30L60.40-2.30L60.40-2.30Q61.71-3.50 61.81-3.50L61.81-3.50L61.81-3.50Q61.98-3.50 61.98-3.30L61.98-3.30L61.98-3.30Q61.98-2.72 61.61-2.55L61.61-2.55L61.61-2.55Q58.48 0.27 57.22 0.27L57.22 0.27L57.22 0.27Q56.44 0.27 56.44-0.71L56.44-0.71L56.44-0.71Q56.44-1.26 57.26-3.91L57.26-3.91L57.26-3.91Q57.36-4.25 59.43-11.70L59.43-11.70L59.43-11.70Q58.62-11.56 57.15-11.56L57.15-11.56L57.15-11.56Q56.37-11.56 56.37-11.87L56.37-11.87L56.37-11.87Q56.37-12.10 56.81-12.43L56.81-12.43L56.81-12.43Q57.26-12.75 57.53-12.75L57.53-12.75ZM71.37-10.57L71.37-10.57L71.37-10.57Q71.57-9.52 71.57-8.87L71.57-8.87L71.57-8.87Q71.57-8.13 71.06-7.60L71.06-7.60L71.06-7.60Q70.55-7.07 69.73-6.85L69.73-6.85L69.73-6.85Q68.92-6.63 68.27-6.55L68.27-6.55L68.27-6.55Q67.63-6.46 67.05-6.46L67.05-6.46L67.05-6.46Q66.71-6.46 66.28-6.48L66.28-6.48L66.28-6.48Q65.86-6.49 65.82-6.49L65.82-6.49L65.82-6.49Q64.70-3.64 64.70-2.01L64.70-2.01L64.70-2.01Q64.70-0.65 65.72-0.65L65.72-0.65L65.72-0.65Q66.44-0.65 67.39-1.55L67.39-1.55L67.39-1.55Q68.34-2.45 69.05-3.35L69.05-3.35L69.05-3.35Q69.77-4.25 69.90-4.25L69.90-4.25L69.90-4.25Q70.14-4.25 70.14-3.98L70.14-3.98L70.14-3.98Q70.14-3.03 68.27-1.34L68.27-1.34L68.27-1.34Q66.40 0.34 65.35 0.34L65.35 0.34L65.35 0.34Q64.50 0.34 63.80-0.19L63.80-0.19L63.80-0.19Q63.10-0.71 63.10-1.94L63.10-1.94L63.10-1.94Q63.10-2.31 63.21-2.82L63.21-2.82L63.21-2.82Q63.44-4.11 63.84-5.34L63.84-5.34L63.84-5.34Q64.23-6.56 64.26-6.83L64.26-6.83L64.26-6.83Q63.75-6.97 63.75-7.38L63.75-7.38L63.75-7.38Q63.75-7.75 64.33-7.75L64.33-7.75L64.57-7.75L64.57-7.75Q65.93-10.44 66.13-10.85L66.13-10.85L66.13-10.85Q67.08-12.65 69.77-12.65L69.77-12.65L69.77-12.65Q70.92-12.65 71.37-10.57ZM70.14-8.94L70.14-8.94L70.14-8.94Q70.14-9.79 69.97-10.40L69.97-10.40L69.97-10.40Q69.80-11.02 69.58-11.25L69.58-11.25L69.58-11.25Q69.36-11.49 69.12-11.49L69.12-11.49L69.12-11.49Q68.44-11.49 67.51-10.03L67.51-10.03L67.51-10.03Q66.57-8.57 66.13-7.45L66.13-7.45L66.13-7.45Q66.20-7.45 66.67-7.41L66.67-7.41L66.67-7.41Q67.15-7.38 67.49-7.38L67.49-7.38L67.49-7.38Q68.88-7.38 69.50-7.68L69.50-7.68L69.50-7.68Q70.11-7.99 70.14-8.94ZM85.51-22.03L85.51-22.03L85.51-22.03Q85.61-21.96 85.61-21.73L85.61-21.73L85.61-21.73Q85.61-21.18 85.08-19.70L85.08-19.70L85.08-19.70Q84.56-18.22 83.62-15.86L83.62-15.86L83.62-15.86Q82.69-13.50 82.18-12.00L82.18-12.00L82.18-12.00Q82.21-12.04 82.25-12.04L82.25-12.04L82.25-12.04Q82.38-12.04 82.53-11.80L82.53-11.80L82.53-11.80Q82.69-11.56 82.69-11.36L82.69-11.36L82.69-11.36Q82.69-11.15 82.35-11.15L82.35-11.15L82.35-11.15Q81.91-11.15 81.87-11.25L81.87-11.25L81.87-11.25Q81.19-9.72 80.16-6.29L80.16-6.29L80.16-6.29Q79.12-2.86 79.12-2.07L79.12-2.07L79.12-2.07Q79.12-1.29 79.56-1.29L79.56-1.29L79.56-1.29Q80.07-1.29 80.75-1.89L80.75-1.89L80.75-1.89Q81.43-2.48 81.96-3.09L81.96-3.09L81.96-3.09Q82.48-3.71 82.59-3.71L82.59-3.71L82.59-3.71Q82.69-3.71 82.69-3.54L82.69-3.54L82.69-3.54Q82.69-3.43 82.64-3.26L82.64-3.26L82.64-3.26Q82.59-3.09 82.53-2.98L82.53-2.98L82.53-2.98Q82.48-2.86 82.45-2.86L82.45-2.86L82.45-2.86Q81.67-2.07 80.27-1.07L80.27-1.07L80.27-1.07Q78.88-0.07 78.10-0.07L78.10-0.07L78.10-0.07Q77.45-0.07 77.45-0.78L77.45-0.78L77.45-0.78Q77.45-2.62 78.74-6.39L78.74-6.39L78.74-6.39Q77.28-4.32 75.19-2.04L75.19-2.04L75.19-2.04Q73.10 0.24 71.91 0.24L71.91 0.24L71.91 0.24Q71.20 0.24 71.20-0.78L71.20-0.78L71.20-0.78Q71.20-2.24 72.22-5.02L72.22-5.02L72.22-5.02Q73.24-7.79 74.65-10.05L74.65-10.05L74.65-10.05Q76.06-12.31 77.01-12.31L77.01-12.31L77.15-12.31L77.15-12.31Q77.38-12.31 77.71-12.56L77.71-12.56L77.71-12.56Q78.03-12.82 78.40-12.82L78.40-12.82L78.40-12.82Q78.91-12.82 79.85-12.55L79.85-12.55L79.85-12.55Q80.78-12.27 80.85-12.27L80.85-12.27L80.85-12.27Q80.89-12.27 80.89-12.31L80.89-12.31L80.89-12.31Q83.33-18.90 83.40-19.11L83.40-19.11L83.40-19.11Q83.03-19.11 83.03-19.52L83.03-19.52L83.03-19.52Q83.03-20.47 84.05-22.00L84.05-22.00L84.05-22.00Q84.18-22.27 84.59-22.27L84.59-22.27L84.59-22.27Q85.03-22.27 85.51-22.03ZM80.65-11.53L80.65-11.53L80.65-11.53Q80.65-11.90 78.64-11.90L78.64-11.90L78.64-11.90Q78.06-11.90 77.79-11.83L77.79-11.83L77.79-11.83Q77.04-11.63 74.92-7.72L74.92-7.72L74.92-7.72Q72.79-3.81 72.79-2.01L72.79-2.01L72.79-2.01Q72.79-1.46 73.13-1.46L73.13-1.46L73.13-1.46Q73.47-1.46 74.12-2.01L74.12-2.01L74.12-2.01Q74.77-2.55 75.31-3.16L75.31-3.16L75.31-3.16Q75.85-3.77 76.50-4.50L76.50-4.50L76.50-4.50Q77.15-5.24 77.18-5.30L77.18-5.30L77.18-5.30Q78.10-6.32 78.86-7.70L78.86-7.70L78.86-7.70Q79.63-9.08 80.12-10.27L80.12-10.27L80.12-10.27Q80.61-11.46 80.65-11.53ZM90.68-0.37L90.68-0.37L90.68-0.37Q90.51 0.03 90.34 0.03L90.34 0.03L90.34 0.03Q90.03 0.03 89.66-0.37L89.66-0.37L89.66-0.37Q89.28-0.78 89.28-1.33L89.28-1.33L89.28-1.33Q89.28-1.84 90.10-3.91L90.10-3.91L90.10-3.91Q90.20-4.18 90.42-4.32L90.42-4.32L90.42-4.32Q90.64-4.45 90.68-4.56L90.68-4.56L90.68-4.56Q94.35-14.11 96.49-21.45L96.49-21.45L96.76-21.66L96.76-21.66Q97.00-21.86 97.36-22.07L97.36-22.07L97.36-22.07Q97.72-22.27 97.95-22.27L97.95-22.27L97.95-22.27Q98.29-22.27 98.29-21.76L98.29-21.76L98.29-21.76Q97.92-20.37 95.91-14.93L95.91-14.93L95.91-14.93Q93.91-9.49 92.62-6.36L92.62-6.36L92.62-6.36Q93.91-8.30 96.03-10.69L96.03-10.69L96.03-10.69Q98.16-13.09 99.21-13.09L99.21-13.09L99.21-13.09Q99.89-13.09 99.89-11.83L99.89-11.83L99.89-11.59L99.89-11.59Q99.86-10.91 99.25-8.53L99.25-8.53L99.25-8.53Q99.99-8.91 100.27-8.91L100.27-8.91L100.27-8.91Q100.37-8.91 100.37-8.84L100.37-8.84L100.37-8.84Q100.37-8.67 99.94-8.33L99.94-8.33L99.94-8.33Q99.52-7.99 99.08-7.82L99.08-7.82L99.08-7.82Q97.75-3.43 96.49-2.04L96.49-2.04L96.49-2.04Q96.02-1.53 94.55-0.63L94.55-0.63L94.55-0.63Q93.09 0.27 92.75 0.27L92.75 0.27L92.75 0.27Q91.36 0.27 90.68-0.37ZM97.38-7.00L97.38-7.00L97.38-7.00Q93.36-4.90 92.21-3.64L92.21-3.64L92.21-3.64Q92.00-3.23 91.71-2.58L91.71-2.58L91.71-2.58Q91.43-1.94 91.32-1.73L91.32-1.73L91.32-1.73Q92.14-0.82 92.99-0.82L92.99-0.82L92.99-0.82Q94.38-0.82 95.59-2.89L95.59-2.89L95.59-2.89Q96.80-4.96 97.38-7.00ZM97.65-7.75L97.65-7.75L97.65-7.75Q98.19-9.18 98.26-10.71L98.26-10.71L98.26-10.71Q98.26-11.42 97.92-11.42L97.92-11.42L97.92-11.42Q96.80-11.42 92.45-4.49L92.45-4.49L92.45-4.49Q94.49-6.15 97.65-7.75ZM111.66-13.19L111.66-13.19L111.66-13.19Q111.76-13.02 111.76-12.82L111.76-12.82L111.76-12.82Q111.76-11.46 108.78-7.34L108.78-7.34L108.78-7.34Q105.81-3.23 104.01-1.12L104.01-1.12L104.01-1.19L104.01-1.19Q103.97-1.19 103.92-0.92L103.92-0.92L103.92-0.92Q103.87-0.65 103.77-0.24L103.77-0.24L103.77-0.24Q103.67 0.17 103.56 0.56L103.56 0.56L103.56 0.56Q103.46 0.95 103.31 1.24L103.31 1.24L103.31 1.24Q103.16 1.53 103.02 1.53L103.02 1.53L103.02 1.53Q102.88 1.53 102.66 1.45L102.66 1.45L102.66 1.45Q102.44 1.36 102.41 1.36L102.41 1.36L102.41 1.36Q97.82 7.51 97.82 9.25L97.82 9.25L97.82 9.25Q97.82 9.55 97.95 9.88L97.95 9.88L97.95 9.88Q98.09 10.20 98.09 10.30L98.09 10.30L98.09 10.30Q98.09 10.68 97.68 10.95L97.68 10.95L97.68 10.95Q97.27 11.22 96.87 11.22L96.87 11.22L96.87 11.22Q96.32 11.22 96.32 10.57L96.32 10.57L96.32 10.57Q96.32 9.35 97.78 6.85L97.78 6.85L97.78 6.85Q99.25 4.35 100.79 2.21L100.79 2.21L100.79 2.21Q102.34 0.07 102.37-0.07L102.37-0.07L102.37-0.07Q102.75-1.19 102.75-3.13L102.75-3.13L102.75-3.13Q102.75-5.92 102.22-8.02L102.22-8.02L102.22-8.02Q101.69-10.13 100.78-10.13L100.78-10.13L100.78-10.13Q100.67-10.13 100.50-10.13L100.50-10.13L100.30-10.10L100.30-10.10Q100.16-10.10 100.16-10.27L100.16-10.27L100.16-10.27Q100.16-10.54 100.91-11.08L100.91-11.08L100.91-11.08Q101.01-11.15 101.49-11.83L101.49-11.83L101.49-11.83Q101.97-12.51 102.20-12.51L102.20-12.51L102.20-12.51Q102.92-12.51 103.48-10.32L103.48-10.32L103.48-10.32Q104.04-8.13 104.04-5.44L104.04-5.44L104.04-5.44Q104.04-5.17 104.02-4.62L104.02-4.62L104.02-4.62Q104.01-4.08 104.01-3.81L104.01-3.81L104.01-3.81Q104.01-3.26 104.28-3.26L104.28-3.26L104.28-3.26Q105.06-3.26 107.42-6.87L107.42-6.87L107.42-6.87Q109.79-10.47 109.79-11.46L109.79-11.46L109.79-11.46Q109.79-11.66 109.62-11.66L109.62-11.66L109.62-11.66Q109.55-11.66 109.38-11.59L109.38-11.59L109.38-11.59Q109.21-11.53 109.11-11.53L109.11-11.53L109.11-11.53Q108.94-11.53 108.83-11.70L108.83-11.70L108.83-11.70Q108.83-12.14 109.82-12.68L109.82-12.68L109.82-12.68Q110.81-13.23 111.42-13.23L111.42-13.23L111.42-13.23Q111.59-13.23 111.66-13.19ZM137.56-2.45L137.56-2.45L137.56-2.45Q137.56-2.24 137.02-1.90L137.02-1.90L137.02-1.90Q134.27-0.58 132.12 2.18L132.12 2.18L132.12 2.18Q131.99 2.38 131.82 2.38L131.82 2.38L131.82 2.38Q131.48 2.38 131.48 1.90L131.48 1.90L131.48 1.90Q131.48 1.53 132.00 0.85L132.00 0.85L132.00 0.85Q132.53 0.17 132.94-0.14L132.94-0.14L132.94-0.14Q133.01-1.12 133.09-2.75L133.09-2.75L133.09-2.75Q133.18-4.39 133.23-6.05L133.23-6.05L133.23-6.05Q133.28-7.72 133.28-8.67L133.28-8.67L133.28-8.67Q133.28-9.08 133.28-9.28L133.28-9.28L133.28-9.28Q122.88-9.18 122.81-9.18L122.81-9.18L122.81-9.18Q121.24-6.77 120.41-5.30L120.41-5.30L120.41-5.30Q119.58-3.84 118.83-1.55L118.83-1.55L118.83-1.55Q118.08 0.75 118.08 2.99L118.08 2.99L118.08 2.99Q118.08 4.76 118.90 5.64L118.90 5.64L118.90 5.64Q119.20 5.95 119.20 6.12L119.20 6.12L119.20 6.12Q119.20 6.32 118.59 6.32L118.59 6.32L118.59 6.32Q117.67 6.32 117.25 5.02L117.25 5.02L117.25 5.02Q116.82 3.71 116.82 2.55L116.82 2.55L116.82 2.55Q116.82-0.31 118.13-3.15L118.13-3.15L118.13-3.15Q119.44-5.98 121.65-9.18L121.65-9.18L121.65-9.18Q121.52-9.18 121.33-9.18L121.33-9.18L121.33-9.18Q121.14-9.18 120.97-9.18L120.97-9.18L120.97-9.18Q120.80-9.18 120.58-9.18L120.58-9.18L120.58-9.18Q120.36-9.18 120.17-9.16L120.17-9.16L120.17-9.16Q119.99-9.15 119.78-9.15L119.78-9.15L119.78-9.15Q119.58-9.15 119.37-9.15L119.37-9.15L119.37-9.15Q118.63-9.15 118.18-9.18L118.18-9.18L118.18-9.18Q117.74-9.21 117.74-9.32L117.74-9.32L117.74-9.32Q117.74-9.62 118.01-9.83L118.01-9.83L118.01-9.83Q118.29-10.03 118.78-10.12L118.78-10.12L118.78-10.12Q119.27-10.20 119.76-10.25L119.76-10.25L119.76-10.25Q120.26-10.30 120.84-10.30L120.84-10.30L120.84-10.30Q121.21-10.30 121.58-10.29L121.58-10.29L121.58-10.29Q121.96-10.27 122.21-10.25L122.21-10.25L122.21-10.25Q122.47-10.23 122.47-10.23L122.47-10.23L122.47-10.23Q126.17-15.23 131.51-20.37L131.51-20.37L131.51-20.37Q131.17-21.83 131.17-22.24L131.17-22.24L131.17-22.24Q131.17-22.92 131.99-22.92L131.99-22.92L131.99-22.92Q133.01-22.92 133.18-21.93L133.18-21.93L133.18-21.93Q133.79-22.54 133.99-22.54L133.99-22.54L133.99-22.54Q134.33-22.54 134.33-21.90L134.33-21.90L134.33-21.90Q134.33-21.79 134.32-21.64L134.32-21.64L134.32-21.64Q134.30-21.49 134.30-21.42L134.30-21.42L134.30-21.42Q134.20-21.32 133.93-21.08L133.93-21.08L133.93-21.08Q133.65-20.84 133.52-20.67L133.52-20.67L133.52-20.67Q134.44-16.42 134.44-10.23L134.44-10.23L134.44-10.23Q134.47-10.23 134.56-10.23L134.56-10.23L134.56-10.23Q134.64-10.23 134.67-10.23L134.67-10.23L134.67-10.23Q137.29-10.23 137.53-9.76L137.53-9.76L137.53-9.76Q137.46-9.59 136.25-9.47L136.25-9.47L136.25-9.47Q135.05-9.35 134.44-9.35L134.44-9.35L134.44-1.43L134.44-1.43Q136.78-2.69 137.26-2.69L137.26-2.69L137.26-2.69Q137.56-2.69 137.56-2.45ZM123.56-10.20L133.28-10.20L133.28-10.20Q133.28-11.66 132.84-14.71L132.84-14.71L132.84-14.71Q132.40-17.75 131.85-19.14L131.85-19.14L131.85-19.14Q125.77-13.57 123.56-10.20L123.56-10.20ZM146.88-21.18L146.88-21.18L146.88-21.18Q145.01-17.31 143.07-11.82L143.07-11.82L143.07-11.82Q141.13-6.32 140.22-2.21L140.22-2.21L140.22-2.21Q140.18-2.11 140.18-1.94L140.18-1.94L140.18-1.94Q140.18-1.53 140.52-1.53L140.52-1.53L140.52-1.53Q140.73-1.53 141.63-2.04L141.63-2.04L141.63-2.04Q142.53-2.55 142.77-2.55L142.77-2.55L142.77-2.55Q142.97-2.55 143.07-2.41L143.07-2.41L143.07-2.41Q143.07-2.01 141.37-0.90L141.37-0.90L141.37-0.90Q139.67 0.20 138.96 0.20L138.96 0.20L138.96 0.20Q138.31 0.20 138.31-0.41L138.31-0.41L138.31-0.41Q138.31-0.75 138.45-1.12L138.45-1.12L138.45-1.12Q139.33-3.54 140.10-5.92L140.10-5.92L140.10-5.92Q140.86-8.30 141.85-11.58L141.85-11.58L141.85-11.58Q142.83-14.86 143.31-16.42L143.31-16.42L143.31-16.42Q143.41-16.73 143.41-17.03L143.41-17.03L143.41-17.03Q143.41-17.17 143.36-17.29L143.36-17.29L143.36-17.29Q143.31-17.41 143.31-17.51L143.31-17.51L143.31-17.51Q143.31-17.61 143.41-17.92L143.41-17.92L143.41-17.92Q144.09-20.06 144.67-20.77L144.67-20.77L144.67-20.77Q145.25-21.49 146.37-21.49L146.37-21.49L146.37-21.49Q146.85-21.49 146.88-21.18ZM153.48-10.13L153.48-10.13Q154.12-10.03 154.12-9.76L154.12-9.76L154.12-9.76Q154.12-9.49 153.61-9.23L153.61-9.23L153.61-9.23Q153.10-8.98 152.69-8.98L152.69-8.98L152.69-8.98Q152.69-5.00 150.62-2.18L150.62-2.18L150.62-2.18Q148.55 0.65 146.51 0.65L146.51 0.65L146.51 0.65Q144.53 0.65 144.53-2.21L144.53-2.21L144.53-2.21Q144.53-2.99 144.67-3.77L144.67-3.77L144.67-3.77Q144.84-4.66 145.28-6.05L145.28-6.05L145.28-6.05Q145.72-7.45 146.44-9.08L146.44-9.08L146.44-9.08Q147.15-10.71 148.19-11.85L148.19-11.85L148.19-11.85Q149.23-12.99 150.28-12.99L150.28-12.99L150.52-12.99L150.52-12.99Q150.52-13.46 150.79-13.80L150.79-13.80L150.79-13.80Q151.06-14.14 151.54-14.14L151.54-14.14L151.54-14.14Q152.01-14.11 152.39-12.16L152.39-12.16L152.39-12.16Q152.76-10.20 153.48-10.13L153.48-10.13ZM151.74-9.25L151.74-9.25L151.74-9.25Q151.44-9.42 150.99-10.46L150.99-10.46L150.99-10.46Q150.55-11.49 150.38-11.49L150.38-11.49L150.38-11.49Q149.33-11.49 147.93-8.38L147.93-8.38L147.93-8.38Q146.54-5.27 146.20-3.47L146.20-3.47L146.20-3.47Q146.06-2.69 146.06-2.04L146.06-2.04L146.06-2.04Q146.06-0.37 147.02-0.37L147.02-0.37L147.02-0.37Q148.38-0.37 150.06-3.15L150.06-3.15L150.06-3.15Q151.74-5.92 151.74-9.25ZM162.45-11.66L162.45-11.66L162.45-11.66Q162.38-10.98 161.57-9.72L161.57-9.72L161.57-9.72Q160.75-8.47 160.31-8.47L160.31-8.47L160.31-8.47Q160.17-8.47 160.17-8.67L160.17-8.67L160.17-8.67Q160.17-8.98 160.55-9.91L160.55-9.91L160.55-9.91Q160.92-10.85 160.92-11.12L160.92-11.12L160.92-11.12Q160.92-11.63 160.31-11.63L160.31-11.63L160.31-11.63Q160.21-11.63 159.19-11.46L159.19-11.46L159.19-11.46Q158.34-11.25 156.96-10.37L156.96-10.37L156.96-10.37Q155.58-9.49 155.58-8.43L155.58-8.43L155.58-8.43Q155.58-8.06 155.75-7.75L155.75-7.75L155.75-7.75Q156.20-6.87 157.30-6.26L157.30-6.26L157.30-6.26Q158.41-5.64 159.20-5.10L159.20-5.10L159.20-5.10Q160.00-4.56 160.00-3.67L160.00-3.67L160.00-3.67Q160.00-2.18 157.71-0.80L157.71-0.80L157.71-0.80Q155.41 0.58 153.78 0.58L153.78 0.58L153.78 0.58Q153.51 0.58 153.34 0.36L153.34 0.36L153.34 0.36Q153.17 0.14 153.17-0.10L153.17-0.10L153.17-0.10Q153.17-0.51 153.54-0.51L153.54-0.51L153.54-0.51Q154.67-0.51 156.69-1.21L156.69-1.21L156.69-1.21Q158.71-1.90 158.71-2.72L158.71-2.72L158.71-2.72Q158.71-3.20 157.95-3.84L157.95-3.84L157.95-3.84Q157.18-4.49 156.28-5.03L156.28-5.03L156.28-5.03Q155.38-5.58 154.61-6.34L154.61-6.34L154.61-6.34Q153.85-7.11 153.85-7.82L153.85-7.82L153.85-7.82Q153.85-8.40 154.26-8.91L154.26-8.91L154.26-8.91Q154.56-9.28 154.90-9.64L154.90-9.64L154.90-9.64Q155.24-10.00 155.55-10.27L155.55-10.27L155.55-10.27Q155.86-10.54 156.25-10.81L156.25-10.81L156.25-10.81Q156.64-11.08 156.94-11.29L156.94-11.29L156.94-11.29Q157.25-11.49 157.66-11.70L157.66-11.70L157.66-11.70Q158.07-11.90 158.30-12.02L158.30-12.02L158.30-12.02Q158.54-12.14 158.93-12.31L158.93-12.31L158.93-12.31Q159.32-12.48 159.48-12.53L159.48-12.53L159.48-12.53Q159.63-12.58 159.97-12.72L159.97-12.72L159.97-12.72Q160.31-12.85 160.34-12.85L160.34-12.85L160.34-12.85Q160.92-13.02 161.23-13.02L161.23-13.02L161.23-13.02Q162.45-13.02 162.45-11.66ZM172.69-12.04L172.69-12.04L172.69-12.04Q170.85-9.08 169.27-5.46L169.27-5.46L169.27-5.46Q167.69-1.84 167.69 0.17L167.69 0.17L167.69 0.17Q167.69 0.65 167.96 0.65L167.96 0.65L167.96 0.65Q168.06 0.65 168.55 0.34L168.55 0.34L168.55 0.34Q169.05 0.03 169.15 0.03L169.15 0.03L169.15 0.03Q169.32 0.03 169.32 0.24L169.32 0.24L169.32 0.24Q169.32 0.65 168.67 1.10L168.67 1.10L168.67 1.10Q168.03 1.56 167.42 1.56L167.42 1.56L167.42 1.56Q166.57 1.56 166.57 0.31L166.57 0.31L166.57 0.31Q166.57-1.16 167.52-3.83L167.52-3.83L167.52-3.83Q168.47-6.49 169.42-8.69L169.42-8.69L169.42-8.69Q170.37-10.88 170.37-11.15L170.37-11.15L170.37-11.15Q170.37-11.22 170.34-11.22L170.34-11.22L170.34-11.22Q170.20-11.22 169.73-10.71L169.73-10.71L169.73-10.71Q167.59-8.30 166.12-6.00L166.12-6.00L166.12-6.00Q164.66-3.71 164.17-2.48L164.17-2.48L164.17-2.48Q163.68-1.26 163.15-0.53L163.15-0.53L163.15-0.53Q162.62 0.20 161.91 0.20L161.91 0.20L161.91 0.20Q161.60 0.20 161.60-0.14L161.60-0.14L161.60-0.14Q161.60-0.44 161.77-0.82L161.77-0.82L161.77-0.82Q162.69-3.20 163.54-5.75L163.54-5.75L163.54-5.75Q164.39-8.30 165.36-11.44L165.36-11.44L165.36-11.44Q166.33-14.59 166.94-16.42L166.94-16.42L166.94-16.42Q167.04-16.73 167.04-17.03L167.04-17.03L167.04-17.03Q167.04-17.17 167.01-17.29L167.01-17.29L167.01-17.29Q166.97-17.41 166.97-17.48L166.97-17.48L166.97-17.48Q166.97-17.61 167.08-17.92L167.08-17.92L167.08-17.92Q167.86-20.09 168.40-20.79L168.40-20.79L168.40-20.79Q168.95-21.49 170.07-21.49L170.07-21.49L170.07-21.49Q170.51-21.49 170.58-21.18L170.58-21.18L170.58-21.18Q166.87-13.70 164.56-5.27L164.56-5.27L164.56-5.27Q169.63-13.19 172.21-13.19L172.21-13.19L172.21-13.19Q172.92-13.19 172.92-12.72L172.92-12.72L172.92-12.72Q172.92-12.41 172.69-12.04ZM184.25-13.19L184.25-13.19L184.25-13.19Q184.35-13.02 184.35-12.82L184.35-12.82L184.35-12.82Q184.35-11.46 181.37-7.34L181.37-7.34L181.37-7.34Q178.40-3.23 176.60-1.12L176.60-1.12L176.60-1.19L176.60-1.19Q176.56-1.19 176.51-0.92L176.51-0.92L176.51-0.92Q176.46-0.65 176.36-0.24L176.36-0.24L176.36-0.24Q176.26 0.17 176.15 0.56L176.15 0.56L176.15 0.56Q176.05 0.95 175.90 1.24L175.90 1.24L175.90 1.24Q175.75 1.53 175.61 1.53L175.61 1.53L175.61 1.53Q175.47 1.53 175.25 1.45L175.25 1.45L175.25 1.45Q175.03 1.36 175.00 1.36L175.00 1.36L175.00 1.36Q170.41 7.51 170.41 9.25L170.41 9.25L170.41 9.25Q170.41 9.55 170.54 9.88L170.54 9.88L170.54 9.88Q170.68 10.20 170.68 10.30L170.68 10.30L170.68 10.30Q170.68 10.68 170.27 10.95L170.27 10.95L170.27 10.95Q169.86 11.22 169.46 11.22L169.46 11.22L169.46 11.22Q168.91 11.22 168.91 10.57L168.91 10.57L168.91 10.57Q168.91 9.35 170.37 6.85L170.37 6.85L170.37 6.85Q171.84 4.35 173.38 2.21L173.38 2.21L173.38 2.21Q174.93 0.07 174.96-0.07L174.96-0.07L174.96-0.07Q175.34-1.19 175.34-3.13L175.34-3.13L175.34-3.13Q175.34-5.92 174.81-8.02L174.81-8.02L174.81-8.02Q174.28-10.13 173.37-10.13L173.37-10.13L173.37-10.13Q173.26-10.13 173.09-10.13L173.09-10.13L172.89-10.10L172.89-10.10Q172.75-10.10 172.75-10.27L172.75-10.27L172.75-10.27Q172.75-10.54 173.50-11.08L173.50-11.08L173.50-11.08Q173.60-11.15 174.08-11.83L174.08-11.83L174.08-11.83Q174.56-12.51 174.79-12.51L174.79-12.51L174.79-12.51Q175.51-12.51 176.07-10.32L176.07-10.32L176.07-10.32Q176.63-8.13 176.63-5.44L176.63-5.44L176.63-5.44Q176.63-5.17 176.61-4.62L176.61-4.62L176.61-4.62Q176.60-4.08 176.60-3.81L176.60-3.81L176.60-3.81Q176.60-3.26 176.87-3.26L176.87-3.26L176.87-3.26Q177.65-3.26 180.01-6.87L180.01-6.87L180.01-6.87Q182.38-10.47 182.38-11.46L182.38-11.46L182.38-11.46Q182.38-11.66 182.21-11.66L182.21-11.66L182.21-11.66Q182.14-11.66 181.97-11.59L181.97-11.59L181.97-11.59Q181.80-11.53 181.70-11.53L181.70-11.53L181.70-11.53Q181.53-11.53 181.42-11.70L181.42-11.70L181.42-11.70Q181.42-12.14 182.41-12.68L182.41-12.68L182.41-12.68Q183.40-13.23 184.01-13.23L184.01-13.23L184.01-13.23Q184.18-13.23 184.25-13.19ZM194.89-12.65L194.89-12.65L194.89-12.65Q193.15-9.76 191.66-6.02L191.66-6.02L191.66-6.02Q190.16-2.28 190.16-0.41L190.16-0.41L190.16-0.41Q190.16 0.20 190.43 0.20L190.43 0.20L190.43 0.20Q190.54 0.20 191.10-0.14L191.10-0.14L191.10-0.14Q191.66-0.48 191.76-0.48L191.76-0.48L191.76-0.48Q191.96-0.48 191.96-0.27L191.96-0.27L191.96-0.27Q191.96 0.14 191.22 0.65L191.22 0.65L191.22 0.65Q190.47 1.16 189.72 1.16L189.72 1.16L189.72 1.16Q188.73 1.16 188.73-0.31L188.73-0.31L188.73-0.31Q188.73-1.63 189.28-3.40L189.28-3.40L189.28-3.40Q189.82-5.17 190.98-7.92L190.98-7.92L190.98-7.92Q192.13-10.68 192.13-10.71L192.13-10.71L192.13-10.71Q192.30-11.15 192.30-11.39L192.30-11.39L192.30-11.39Q192.30-11.56 192.20-11.56L192.20-11.56L192.20-11.56Q192.03-11.56 191.45-10.95L191.45-10.95L191.45-10.95Q189.99-9.32 187.27-5.37L187.27-5.37L187.27-5.37Q184.55-1.43 184.48-0.51L184.48-0.51L184.48-0.51Q184.45-0.27 183.84 0.15L183.84 0.15L183.84 0.15Q183.23 0.58 182.82 0.58L182.82 0.58L182.82 0.58Q182.58 0.58 182.55 0.34L182.55 0.34L182.55 0.34Q182.61 0.44 183.82-3.06L183.82-3.06L183.82-3.06Q185.03-6.56 185.54-8.13L185.54-8.13L185.54-8.13Q185.67-8.53 185.67-8.74L185.67-8.74L185.67-8.74Q185.67-8.87 185.62-8.99L185.62-8.99L185.62-8.99Q185.57-9.11 185.57-9.18L185.57-9.18L185.57-9.18Q185.57-9.32 185.67-9.62L185.67-9.62L185.67-9.62Q186.46-11.80 187.00-12.50L187.00-12.50L187.00-12.50Q187.54-13.19 188.67-13.19L188.67-13.19L188.67-13.19Q189.11-13.19 189.18-12.89L189.18-12.89L189.18-12.89Q186.39-7.17 185.84-4.73L185.84-4.73L185.84-4.73Q191.45-13.77 194.45-13.77L194.45-13.77L194.45-13.77Q195.13-13.77 195.13-13.33L195.13-13.33L195.13-13.33Q195.13-13.02 194.89-12.65ZM217.40-23.26L217.40-23.26L217.40-23.26Q220.05-23.26 220.05-21.93L220.05-21.93L220.05-21.93Q220.05-21.18 219.13-20.13L219.13-20.13L219.13-20.13Q227.32-19.04 227.32-11.66L227.32-11.66L227.32-11.66Q227.32-9.18 226.32-6.94L226.32-6.94L226.32-6.94Q225.32-4.69 223.63-3.04L223.63-3.04L223.63-3.04Q221.95-1.39 219.81-0.17L219.81-0.17L219.81-0.17Q217.67 1.05 215.30 1.67L215.30 1.67L215.30 1.67Q212.94 2.28 210.66 2.28L210.66 2.28L210.66 2.28Q208.62 2.28 206.87 1.75L206.87 1.75L206.87 1.75Q205.12 1.22 203.74 0.17L203.74 0.17L203.74 0.17Q202.37-0.88 201.59-2.62L201.59-2.62L201.59-2.62Q200.80-4.35 200.80-6.56L200.80-6.56L200.80-6.56Q200.80-12.38 206.04-17.85L206.04-17.85L206.04-17.85Q204.31-17.24 203.59-16.83L203.59-16.83L203.59-16.83Q203.42-16.76 203.29-16.69L203.29-16.69L203.29-16.69Q203.15-16.63 203.01-16.56L203.01-16.56L203.01-16.56Q202.88-16.49 202.76-16.46L202.76-16.46L202.76-16.46Q202.64-16.42 202.54-16.39L202.54-16.39L202.54-16.39Q202.44-16.35 202.35-16.34L202.35-16.34L202.35-16.34Q202.27-16.32 202.21-16.30L202.21-16.30L202.21-16.30Q202.16-16.29 202.10-16.29L202.10-16.29L202.10-16.29Q201.96-16.32 201.93-16.39L201.93-16.39L201.93-16.39Q201.93-16.76 203.32-17.48L203.32-17.48L203.32-17.48Q205.36-18.56 207.50-19.21L207.50-19.21L207.50-19.21Q211.41-22.54 216.07-23.15L216.07-23.15L216.07-23.15Q216.14-23.15 216.21-23.17L216.21-23.17L216.21-23.17Q216.27-23.19 216.34-23.19L216.34-23.19L216.34-23.19Q216.41-23.19 216.49-23.21L216.49-23.21L216.49-23.21Q216.58-23.22 216.65-23.22L216.65-23.22L216.65-23.22Q216.72-23.22 216.78-23.22L216.78-23.22L216.78-23.22Q216.85-23.22 216.94-23.22L216.94-23.22L216.94-23.22Q217.02-23.22 217.09-23.24L217.09-23.24L217.09-23.24Q217.16-23.26 217.24-23.26L217.24-23.26L217.24-23.26Q217.33-23.26 217.40-23.26ZM218.14-20.23L218.14-20.23L218.14-20.23Q218.59-21.05 218.59-21.49L218.59-21.49L218.59-21.49Q218.59-22.20 217.29-22.20L217.29-22.20L217.29-22.20Q217.16-22.20 217.02-22.20L217.02-22.20L217.02-22.20Q216.89-22.20 216.73-22.19L216.73-22.19L216.73-22.19Q216.58-22.17 216.41-22.17L216.41-22.17L216.41-22.17Q213.01-21.83 210.19-19.89L210.19-19.89L210.19-19.89Q212.57-20.37 215.25-20.37L215.25-20.37L215.25-20.37Q215.93-20.37 216.66-20.33L216.66-20.33L216.66-20.33Q217.40-20.30 218.14-20.23ZM202.61-7.00L202.61-7.00L202.61-7.00Q202.61-5.30 203.06-3.89L203.06-3.89L203.06-3.89Q203.52-2.48 204.32-1.51L204.32-1.51L204.32-1.51Q205.12-0.54 206.23 0.12L206.23 0.12L206.23 0.12Q207.33 0.78 208.62 1.10L208.62 1.10L208.62 1.10Q209.92 1.43 211.38 1.43L211.38 1.43L211.38 1.43Q213.35 1.43 215.39 0.85L215.39 0.85L215.39 0.85Q217.43 0.27 219.28-0.87L219.28-0.87L219.28-0.87Q221.14-2.01 222.60-3.54L222.60-3.54L222.60-3.54Q224.06-5.07 224.93-7.17L224.93-7.17L224.93-7.17Q225.79-9.28 225.79-11.63L225.79-11.63L225.79-11.63Q225.79-14.69 223.80-16.88L223.80-16.88L223.80-16.88Q221.82-19.07 218.69-19.41L218.69-19.41L218.69-19.41Q218.45-19.11 217.84-18.46L217.84-18.46L217.84-18.46Q217.23-17.82 215.81-16.68L215.81-16.68L215.81-16.68Q214.40-15.54 213.15-14.89L213.15-14.89L213.15-14.89Q211.58-14.14 211.24-14.14L211.24-14.14L211.24-14.14Q211.14-14.14 211.14-14.18L211.14-14.18L211.14-14.18Q211.14-14.52 213.01-15.74L213.01-15.74L213.01-15.74Q215.66-17.51 217.63-19.48L217.63-19.48L217.63-19.48Q216.85-19.52 216.00-19.52L216.00-19.52L216.00-19.52Q214.06-19.52 212.16-19.26L212.16-19.26L212.16-19.26Q210.26-19.01 208.52-18.60L208.52-18.60L208.52-18.60Q205.53-15.88 204.07-12.87L204.07-12.87L204.07-12.87Q202.61-9.86 202.61-7.00ZM236.74-21.18L236.74-21.18L236.74-21.18Q234.87-17.31 232.93-11.82L232.93-11.82L232.93-11.82Q231.00-6.32 230.08-2.21L230.08-2.21L230.08-2.21Q230.04-2.11 230.04-1.94L230.04-1.94L230.04-1.94Q230.04-1.53 230.38-1.53L230.38-1.53L230.38-1.53Q230.59-1.53 231.49-2.04L231.49-2.04L231.49-2.04Q232.39-2.55 232.63-2.55L232.63-2.55L232.63-2.55Q232.83-2.55 232.93-2.41L232.93-2.41L232.93-2.41Q232.93-2.01 231.23-0.90L231.23-0.90L231.23-0.90Q229.53 0.20 228.82 0.20L228.82 0.20L228.82 0.20Q228.17 0.20 228.17-0.41L228.17-0.41L228.17-0.41Q228.17-0.75 228.31-1.12L228.31-1.12L228.31-1.12Q229.19-3.54 229.96-5.92L229.96-5.92L229.96-5.92Q230.72-8.30 231.71-11.58L231.71-11.58L231.71-11.58Q232.70-14.86 233.17-16.42L233.17-16.42L233.17-16.42Q233.27-16.73 233.27-17.03L233.27-17.03L233.27-17.03Q233.27-17.17 233.22-17.29L233.22-17.29L233.22-17.29Q233.17-17.41 233.17-17.51L233.17-17.51L233.17-17.51Q233.17-17.61 233.27-17.92L233.27-17.92L233.27-17.92Q233.95-20.06 234.53-20.77L234.53-20.77L234.53-20.77Q235.11-21.49 236.23-21.49L236.23-21.49L236.23-21.49Q236.71-21.49 236.74-21.18ZM242.62-10.57L242.62-10.57L242.62-10.57Q242.83-9.52 242.83-8.87L242.83-8.87L242.83-8.87Q242.83-8.13 242.32-7.60L242.32-7.60L242.32-7.60Q241.81-7.07 240.99-6.85L240.99-6.85L240.99-6.85Q240.18-6.63 239.53-6.55L239.53-6.55L239.53-6.55Q238.88-6.46 238.31-6.46L238.31-6.46L238.31-6.46Q237.97-6.46 237.54-6.48L237.54-6.48L237.54-6.48Q237.12-6.49 237.08-6.49L237.08-6.49L237.08-6.49Q235.96-3.64 235.96-2.01L235.96-2.01L235.96-2.01Q235.96-0.65 236.98-0.65L236.98-0.65L236.98-0.65Q237.69-0.65 238.65-1.55L238.65-1.55L238.65-1.55Q239.60-2.45 240.31-3.35L240.31-3.35L240.31-3.35Q241.03-4.25 241.16-4.25L241.16-4.25L241.16-4.25Q241.40-4.25 241.40-3.98L241.40-3.98L241.40-3.98Q241.40-3.03 239.53-1.34L239.53-1.34L239.53-1.34Q237.66 0.34 236.61 0.34L236.61 0.34L236.61 0.34Q235.76 0.34 235.06-0.19L235.06-0.19L235.06-0.19Q234.36-0.71 234.36-1.94L234.36-1.94L234.36-1.94Q234.36-2.31 234.46-2.82L234.46-2.82L234.46-2.82Q234.70-4.11 235.09-5.34L235.09-5.34L235.09-5.34Q235.48-6.56 235.52-6.83L235.52-6.83L235.52-6.83Q235.01-6.97 235.01-7.38L235.01-7.38L235.01-7.38Q235.01-7.75 235.59-7.75L235.59-7.75L235.82-7.75L235.82-7.75Q237.18-10.44 237.39-10.85L237.39-10.85L237.39-10.85Q238.34-12.65 241.03-12.65L241.03-12.65L241.03-12.65Q242.18-12.65 242.62-10.57ZM241.40-8.94L241.40-8.94L241.40-8.94Q241.40-9.79 241.23-10.40L241.23-10.40L241.23-10.40Q241.06-11.02 240.84-11.25L240.84-11.25L240.84-11.25Q240.62-11.49 240.38-11.49L240.38-11.49L240.38-11.49Q239.70-11.49 238.76-10.03L238.76-10.03L238.76-10.03Q237.83-8.57 237.39-7.45L237.39-7.45L237.39-7.45Q237.46-7.45 237.93-7.41L237.93-7.41L237.93-7.41Q238.41-7.38 238.75-7.38L238.75-7.38L238.75-7.38Q240.14-7.38 240.75-7.68L240.75-7.68L240.75-7.68Q241.37-7.99 241.40-8.94ZM253.23-11.39L253.23-11.39L253.23-11.39Q252.93-11.29 252.89-11.29L252.89-11.29L252.79-11.32L252.79-11.32Q252.69-11.32 251.70-10.32L251.70-10.32L251.70-10.32Q250.72-9.32 250.44-9.01L250.44-9.01L250.44-9.01Q248.81-7.38 248.81-7.28L248.81-7.28L249.70-4.15L249.70-4.15Q250.58-0.99 250.58-0.20L250.58-0.20L250.58-0.20Q250.58 0.17 250.14 0.83L250.14 0.83L250.14 0.83Q249.70 1.50 249.25 1.50L249.25 1.50L249.25 1.50Q249.12 1.50 248.88 0.12L248.88 0.12L248.88 0.12Q248.64-1.26 248.30-3.18L248.30-3.18L248.30-3.18Q247.96-5.10 247.62-6.02L247.62-6.02L247.62-6.02Q246.84-5.00 245.34-3.20L245.34-3.20L245.34-3.20Q243.85-1.39 242.73 0.09L242.73 0.09L242.73 0.09Q241.60 1.56 240.75 3.09L240.75 3.09L240.75 3.09Q240.38 3.77 240.04 3.77L240.04 3.77L240.04 3.77Q239.73 3.77 239.73 3.16L239.73 3.16L239.73 3.16Q239.73 2.38 241.26 0.39L241.26 0.39L241.26 0.39Q242.79-1.60 244.80-3.86L244.80-3.86L244.80-3.86Q246.81-6.12 247.32-6.90L247.32-6.90L247.25-7.14L247.25-7.14Q247.21-7.38 247.16-7.62L247.16-7.62L247.16-7.62Q247.11-7.85 247.01-8.23L247.01-8.23L247.01-8.23Q246.91-8.60 246.79-8.93L246.79-8.93L246.79-8.93Q246.67-9.25 246.48-9.59L246.48-9.59L246.48-9.59Q246.30-9.93 246.11-10.17L246.11-10.17L246.11-10.17Q245.92-10.40 245.67-10.56L245.67-10.56L245.67-10.56Q245.41-10.71 245.14-10.71L245.14-10.71L245.14-10.71Q244.97-10.71 244.66-10.68L244.66-10.68L244.66-10.68Q244.36-10.64 244.26-10.64L244.26-10.64L244.26-10.64Q244.15-10.64 244.07-10.66L244.07-10.66L244.07-10.66Q243.98-10.68 243.92-10.73L243.92-10.73L243.92-10.73Q243.85-10.78 243.81-10.86L243.81-10.86L243.81-10.86Q243.78-10.95 243.78-11.05L243.78-11.05L243.78-11.05Q243.78-11.15 244.24-11.44L244.24-11.44L244.24-11.44Q244.70-11.73 244.87-11.73L244.87-11.73L244.87-11.73Q245.34-11.76 245.84-12.31L245.84-12.31L245.84-12.31Q246.33-12.85 246.43-12.85L246.43-12.85L246.47-12.85L246.47-12.85Q247.04-12.85 247.72-11.02L247.72-11.02L247.72-11.02Q248.40-9.18 248.61-8.13L248.61-8.13L248.61-8.13Q249.05-8.94 250.95-11.00L250.95-11.00L250.95-11.00Q252.86-13.06 253.30-13.06L253.30-13.06L253.30-13.06Q253.67-13.06 253.67-12.55L253.67-12.55L253.67-12.55Q253.67-11.70 253.23-11.39ZM263.16-2.72L263.16-2.72L263.16-2.72Q263.13-2.69 262.85-2.43L262.85-2.43L262.85-2.43Q262.58-2.18 262.41-2.04L262.41-2.04L262.41-2.04Q262.24-1.90 261.92-1.62L261.92-1.62L261.92-1.62Q261.60-1.33 261.36-1.16L261.36-1.16L261.36-1.16Q261.12-0.99 260.78-0.75L260.78-0.75L260.78-0.75Q260.44-0.51 260.19-0.39L260.19-0.39L260.19-0.39Q259.93-0.27 259.66-0.17L259.66-0.17L259.66-0.17Q259.39-0.07 259.15-0.07L259.15-0.07L259.15-0.07Q258.43-0.07 258.30-0.92L258.30-0.92L258.30-0.92Q258.30-2.35 259.42-6.19L259.42-6.19L259.42-6.19Q254.86 0.10 252.89 0.10L252.89 0.10L252.89 0.10Q252.08 0.10 252.08-1.12L252.08-1.12L252.08-1.12Q252.08-2.69 253.01-5.36L253.01-5.36L253.01-5.36Q253.95-8.02 255.31-10.18L255.31-10.18L255.31-10.18Q256.67-12.34 257.69-12.34L257.69-12.34L257.79-12.34L258.16-12.61L258.16-12.61Q258.47-12.95 259.11-12.95L259.11-12.95L259.11-12.95Q259.62-12.95 260.54-12.68L260.54-12.68L260.54-12.68Q261.46-12.41 261.56-12.41L261.56-12.41L261.56-12.41Q261.70-12.41 261.92-12.68L261.92-12.68L261.92-12.68Q262.14-12.95 262.45-12.95L262.45-12.95L262.45-12.95Q263.30-12.95 263.30-12.21L263.30-12.21L263.30-12.21Q263.30-11.90 263.18-11.53L263.18-11.53L263.18-11.53Q263.06-11.15 262.84-10.66L262.84-10.66L262.84-10.66Q262.62-10.17 262.58-10.06L262.58-10.06L262.58-10.06Q262.55-10.00 262.26-9.86L262.26-9.86L262.26-9.86Q261.97-9.72 261.94-9.62L261.94-9.62L261.94-9.62Q261.19-7.51 260.61-5.12L260.61-5.12L260.61-5.12Q260.03-2.72 260.03-2.18L260.03-2.18L260.03-2.18Q260.03-1.33 260.51-1.33L260.51-1.33L260.51-1.33Q260.98-1.33 261.68-1.90L261.68-1.90L261.68-1.90Q262.38-2.48 262.89-3.06L262.89-3.06L262.89-3.06Q263.40-3.64 263.43-3.64L263.43-3.64L263.43-3.64Q263.50-3.64 263.50-3.50L263.50-3.50L263.50-3.50Q263.50-2.99 263.16-2.72ZM261.02-11.76L260.92-11.76L260.92-11.76Q260.71-11.76 260.22-11.83L260.22-11.83L260.22-11.83Q259.73-11.90 259.39-11.90L259.39-11.90L259.39-11.90Q258.91-11.90 258.37-11.76L258.37-11.76L258.37-11.76Q257.52-11.53 255.58-7.74L255.58-7.74L255.58-7.74Q253.64-3.94 253.64-2.07L253.64-2.07L253.64-2.07Q253.64-1.50 253.98-1.50L253.98-1.50L253.98-1.50Q254.69-1.50 256.51-3.57L256.51-3.57L256.51-3.57Q258.33-5.64 258.91-6.53L258.91-6.53L258.91-6.53Q259.76-7.89 260.47-9.47L260.47-9.47L260.47-9.47Q261.19-11.05 261.19-11.56L261.19-11.56L261.19-11.56Q261.19-11.76 261.02-11.76L261.02-11.76ZM275.30-12.65L275.30-12.65L275.30-12.65Q273.56-9.76 272.07-6.02L272.07-6.02L272.07-6.02Q270.57-2.28 270.57-0.41L270.57-0.41L270.57-0.41Q270.57 0.20 270.84 0.20L270.84 0.20L270.84 0.20Q270.95 0.20 271.51-0.14L271.51-0.14L271.51-0.14Q272.07-0.48 272.17-0.48L272.17-0.48L272.17-0.48Q272.37-0.48 272.37-0.27L272.37-0.27L272.37-0.27Q272.37 0.14 271.63 0.65L271.63 0.65L271.63 0.65Q270.88 1.16 270.13 1.16L270.13 1.16L270.13 1.16Q269.14 1.16 269.14-0.31L269.14-0.31L269.14-0.31Q269.14-1.63 269.69-3.40L269.69-3.40L269.69-3.40Q270.23-5.17 271.39-7.92L271.39-7.92L271.39-7.92Q272.54-10.68 272.54-10.71L272.54-10.71L272.54-10.71Q272.71-11.15 272.71-11.39L272.71-11.39L272.71-11.39Q272.71-11.56 272.61-11.56L272.61-11.56L272.61-11.56Q272.44-11.56 271.86-10.95L271.86-10.95L271.86-10.95Q270.40-9.32 267.68-5.37L267.68-5.37L267.68-5.37Q264.96-1.43 264.89-0.51L264.89-0.51L264.89-0.51Q264.86-0.27 264.25 0.15L264.25 0.15L264.25 0.15Q263.64 0.58 263.23 0.58L263.23 0.58L263.23 0.58Q262.99 0.58 262.96 0.34L262.96 0.34L262.96 0.34Q263.02 0.44 264.23-3.06L264.23-3.06L264.23-3.06Q265.44-6.56 265.95-8.13L265.95-8.13L265.95-8.13Q266.08-8.53 266.08-8.74L266.08-8.74L266.08-8.74Q266.08-8.87 266.03-8.99L266.03-8.99L266.03-8.99Q265.98-9.11 265.98-9.18L265.98-9.18L265.98-9.18Q265.98-9.32 266.08-9.62L266.08-9.62L266.08-9.62Q266.87-11.80 267.41-12.50L267.41-12.50L267.41-12.50Q267.95-13.19 269.08-13.19L269.08-13.19L269.08-13.19Q269.52-13.19 269.59-12.89L269.59-12.89L269.59-12.89Q266.80-7.17 266.25-4.73L266.25-4.73L266.25-4.73Q271.86-13.77 274.86-13.77L274.86-13.77L274.86-13.77Q275.54-13.77 275.54-13.33L275.54-13.33L275.54-13.33Q275.54-13.02 275.30-12.65ZM288.63-22.03L288.63-22.03L288.63-22.03Q288.73-21.96 288.73-21.73L288.73-21.73L288.73-21.73Q288.73-21.18 288.20-19.70L288.20-19.70L288.20-19.70Q287.67-18.22 286.74-15.86L286.74-15.86L286.74-15.86Q285.80-13.50 285.29-12.00L285.29-12.00L285.29-12.00Q285.33-12.04 285.36-12.04L285.36-12.04L285.36-12.04Q285.50-12.04 285.65-11.80L285.65-11.80L285.65-11.80Q285.80-11.56 285.80-11.36L285.80-11.36L285.80-11.36Q285.80-11.15 285.46-11.15L285.46-11.15L285.46-11.15Q285.02-11.15 284.99-11.25L284.99-11.25L284.99-11.25Q284.31-9.72 283.27-6.29L283.27-6.29L283.27-6.29Q282.23-2.86 282.23-2.07L282.23-2.07L282.23-2.07Q282.23-1.29 282.68-1.29L282.68-1.29L282.68-1.29Q283.19-1.29 283.87-1.89L283.87-1.89L283.87-1.89Q284.55-2.48 285.07-3.09L285.07-3.09L285.07-3.09Q285.60-3.71 285.70-3.71L285.70-3.71L285.70-3.71Q285.80-3.71 285.80-3.54L285.80-3.54L285.80-3.54Q285.80-3.43 285.75-3.26L285.75-3.26L285.75-3.26Q285.70-3.09 285.65-2.98L285.65-2.98L285.65-2.98Q285.60-2.86 285.57-2.86L285.57-2.86L285.57-2.86Q284.78-2.07 283.39-1.07L283.39-1.07L283.39-1.07Q282.00-0.07 281.21-0.07L281.21-0.07L281.21-0.07Q280.57-0.07 280.57-0.78L280.57-0.78L280.57-0.78Q280.57-2.62 281.86-6.39L281.86-6.39L281.86-6.39Q280.40-4.32 278.31-2.04L278.31-2.04L278.31-2.04Q276.22 0.24 275.03 0.24L275.03 0.24L275.03 0.24Q274.31 0.24 274.31-0.78L274.31-0.78L274.31-0.78Q274.31-2.24 275.33-5.02L275.33-5.02L275.33-5.02Q276.35-7.79 277.76-10.05L277.76-10.05L277.76-10.05Q279.17-12.31 280.13-12.31L280.13-12.31L280.26-12.31L280.26-12.31Q280.50-12.31 280.82-12.56L280.82-12.56L280.82-12.56Q281.15-12.82 281.52-12.82L281.52-12.82L281.52-12.82Q282.03-12.82 282.96-12.55L282.96-12.55L282.96-12.55Q283.90-12.27 283.97-12.27L283.97-12.27L283.97-12.27Q284.00-12.27 284.00-12.31L284.00-12.31L284.00-12.31Q286.45-18.90 286.52-19.11L286.52-19.11L286.52-19.11Q286.14-19.11 286.14-19.52L286.14-19.52L286.14-19.52Q286.14-20.47 287.16-22.00L287.16-22.00L287.16-22.00Q287.30-22.27 287.71-22.27L287.71-22.27L287.71-22.27Q288.15-22.27 288.63-22.03ZM283.76-11.53L283.76-11.53L283.76-11.53Q283.76-11.90 281.76-11.90L281.76-11.90L281.76-11.90Q281.18-11.90 280.91-11.83L280.91-11.83L280.91-11.83Q280.16-11.63 278.03-7.72L278.03-7.72L278.03-7.72Q275.91-3.81 275.91-2.01L275.91-2.01L275.91-2.01Q275.91-1.46 276.25-1.46L276.25-1.46L276.25-1.46Q276.59-1.46 277.24-2.01L277.24-2.01L277.24-2.01Q277.88-2.55 278.43-3.16L278.43-3.16L278.43-3.16Q278.97-3.77 279.62-4.50L279.62-4.50L279.62-4.50Q280.26-5.24 280.30-5.30L280.30-5.30L280.30-5.30Q281.21-6.32 281.98-7.70L281.98-7.70L281.98-7.70Q282.74-9.08 283.24-10.27L283.24-10.27L283.24-10.27Q283.73-11.46 283.76-11.53ZM295.70-10.03L295.70-10.03L295.70-10.03Q295.43-9.66 294.97-9.30L294.97-9.30L294.97-9.30Q294.51-8.94 294.27-8.94L294.27-8.94L294.27-8.94Q294.07-8.94 294.07-9.15L294.07-9.15L294.07-9.15Q294.07-9.28 294.39-10.10L294.39-10.10L294.39-10.10Q294.71-10.91 294.71-11.22L294.71-11.22L294.71-11.22Q294.71-11.46 294.54-11.46L294.54-11.46L294.54-11.46Q293.35-11.46 291.02-7.79L291.02-7.79L291.02-7.79Q288.69-4.11 287.57-0.61L287.57-0.61L287.57-0.61Q287.37-0.34 286.93-0.07L286.93-0.07L286.93-0.07Q286.48 0.20 286.18 0.20L286.18 0.20L286.18 0.20Q285.97 0.20 285.87 0.03L285.87 0.03L285.87 0.03Q285.87-0.88 286.09-1.63L286.09-1.63L286.09-1.63Q286.31-2.38 286.65-2.52L286.65-2.52L286.65-2.52Q287.40-5.34 287.71-6.73L287.71-6.73L288.05-8.16L288.05-8.16Q288.12-8.40 288.12-8.70L288.12-8.70L288.12-8.70Q288.12-8.87 288.05-9.01L288.05-9.01L288.05-9.01Q287.98-9.15 287.98-9.28L287.98-9.28L287.98-9.28Q287.98-9.49 288.05-9.66L288.05-9.66L288.05-9.66Q288.59-11.80 289.15-12.58L289.15-12.58L289.15-12.58Q289.71-13.36 290.80-13.36L290.80-13.36L290.80-13.36Q291.21-13.36 291.28-13.09L291.28-13.09L291.28-13.09Q291.24-12.99 290.79-11.90L290.79-11.90L290.79-11.90Q290.33-10.81 289.94-9.86L289.94-9.86L289.94-9.86Q289.54-8.91 289.07-7.45L289.07-7.45L289.07-7.45Q288.59-5.98 288.32-4.76L288.32-4.76L288.32-4.76Q289.44-6.97 291.79-10.08L291.79-10.08L291.79-10.08Q294.13-13.19 295.66-13.19L295.66-13.19L295.66-13.19Q296.48-13.19 296.48-12.17L296.48-12.17L296.48-12.17Q296.48-11.12 295.70-10.03Z" fill="url(#editing-gradient-gradient)"></path></g></g><style>text {
  font-size: 64px;
  font-family: Arial Black;
  dominant-baseline: central;
  text-anchor: middle;
}</style></svg>