<svg width="596.01875px" height="122px" xmlns="http://www.w3.org/2000/svg" viewBox="-48.00937499999998 14 596.01875 122" style="background: rgba(0, 0, 0, 0);" preserveAspectRatio="xMidYMid"><defs><linearGradient id="editing-rainbow-gradient" x1="0" x2="1" y1="0.5" y2="0.5" gradientUnits="objectBoundingBox"><stop offset="0.00" stop-color="#f00"></stop><stop offset="0.17" stop-color="#f90"></stop><stop offset="0.34" stop-color="#ff4"></stop><stop offset="0.51" stop-color="#9f0"></stop><stop offset="0.68" stop-color="#09f"></stop><stop offset="0.85" stop-color="#00f"></stop><stop offset="1.00" stop-color="#90f"></stop></linearGradient><filter id="editing-rainbow" x="-100%" y="-100%" width="300%" height="300%"><feMorphology operator="dilate" radius="1,2" in="SourceGraphic" result="dilate"></feMorphology><feColorMatrix in="dilate" result="color" type="matrix" values="0.7 0 0 0 0  0 0.7 0 0 0  0 0 0.7 0 0  0 0 0 1 0"></feColorMatrix><feOffset dy="2" result="offset"></feOffset><feGaussianBlur stdDeviation="3"></feGaussianBlur><feOffset dy="3"></feOffset><feColorMatrix result="blur" type="matrix" values="0.7 0 0 0 0  0 0.7 0 0 0  0 0 0.7 0 0  0 0 0 1 0"></feColorMatrix><feMerge><feMergeNode in="blur"></feMergeNode><feMergeNode in="offset"></feMergeNode><feMergeNode in="SourceGraphic"></feMergeNode></feMerge></filter></defs><g filter="url(#editing-rainbow)"><g transform="translate(38.60499647259712, 104.47000122070312)"><path d="M26.11-42.69L26.11-42.69L26.11-42.69Q41.79-42.69 41.79-31.62L41.79-31.62L41.79-31.62Q41.79-25.54 37.89-21.89L37.89-21.89L37.89-21.89Q34.05-18.24 27.33-18.24L27.33-18.24L27.33-18.24Q24.19-18.24 21.76-20.03L21.76-20.03L21.76-20.03Q20.61-20.80 19.84-21.82L19.84-21.82L19.84-21.82Q24.51-21.82 26.98-24.67L26.98-24.67L26.98-24.67Q29.44-27.52 29.44-33.09L29.44-33.09L29.44-33.09Q29.44-38.66 23.94-38.66L23.94-38.66L22.40-38.66L22.40-38.66Q22.02-38.66 21.70-38.59L21.70-38.59L14.34 0L0.45 0L8.32-41.92L8.32-41.92Q15.17-42.56 19.14-42.62L19.14-42.62L19.14-42.62Q23.10-42.69 26.11-42.69ZM74.30-7.10L74.30-7.10L74.30-7.10Q74.30-4.29 77.18-3.46L77.18-3.46L77.18-3.46Q76.48-1.09 73.73 0.19L73.73 0.19L73.73 0.19Q71.42 1.28 68.90 1.28L68.90 1.28L68.90 1.28Q66.37 1.28 65.06 0.61L65.06 0.61L65.06 0.61Q63.74-0.06 63.04-1.15L63.04-1.15L63.04-1.15Q61.89-2.82 61.89-5.95L61.89-5.95L61.89-5.95Q61.89-7.81 62.91-12.93L62.91-12.93L63.81-17.79L63.81-17.79Q64.90-23.36 64.90-25.41L64.90-25.41L64.90-25.41Q64.90-28.99 62.91-28.99L62.91-28.99L62.91-28.99Q60.42-28.99 58.82-25.34L58.82-25.34L58.82-25.34Q58.18-23.94 57.73-21.82L57.73-21.82L53.38 0L40.51 1.28L49.54-44.80L62.40-46.08L61.89-43.52L61.89-43.52Q60.10-33.66 58.56-30.34L58.56-30.34L58.56-30.34Q62.14-33.92 68.74-33.92L68.74-33.92L68.74-33.92Q75.71-33.92 76.99-29.31L76.99-29.31L76.99-29.31Q77.44-27.84 77.44-26.56L77.44-26.56L77.44-26.56Q77.44-25.28 77.34-24.29L77.34-24.29L77.34-24.29Q77.25-23.30 76.93-21.50L76.93-21.50L76.10-16.90L74.62-9.66L74.62-9.66Q74.30-8.19 74.30-7.10ZM96.32 1.28L96.32 1.28L96.32 1.28Q82.24 1.28 82.24-11.97L82.24-11.97L82.24-11.97Q82.24-21.38 87.42-27.46L87.42-27.46L87.42-27.46Q92.93-33.92 102.46-33.92L102.46-33.92L102.46-33.92Q109.38-33.92 112.90-30.72L112.90-30.72L112.90-30.72Q116.42-27.52 116.42-20.80L116.42-20.80L116.42-20.80Q116.42-10.56 110.91-4.61L110.91-4.61L110.91-4.61Q105.54 1.28 96.32 1.28ZM97.98-26.56L97.98-26.56L97.98-26.56Q97.22-24.83 96.61-22.24L96.61-22.24L96.61-22.24Q96-19.65 95.23-15.55L95.23-15.55L95.23-15.55Q94.46-11.46 94.46-6.40L94.46-6.40L94.46-6.40Q94.46-4.74 95.01-3.65L95.01-3.65L95.01-3.65Q95.55-2.56 97.02-2.56L97.02-2.56L97.02-2.56Q98.50-2.56 99.42-3.26L99.42-3.26L99.42-3.26Q100.35-3.97 101.06-5.63L101.06-5.63L101.06-5.63Q102.34-8.58 103.36-14.05L103.36-14.05L103.36-14.05Q104.38-19.52 104.48-21.89L104.48-21.89L104.48-21.89Q104.58-24.26 104.58-26.02L104.58-26.02L104.58-26.02Q104.58-27.78 104.06-28.93L104.06-28.93L104.06-28.93Q103.55-30.08 102.11-30.08L102.11-30.08L102.11-30.08Q100.67-30.08 99.71-29.18L99.71-29.18L99.71-29.18Q98.75-28.29 97.98-26.56ZM121.22-6.40L121.22-6.40L121.22-6.40Q121.22-8.13 122.11-12.48L122.11-12.48L125.50-29.76L121.73-29.76L121.98-31.68L121.98-31.68Q129.66-33.98 137.09-39.62L137.09-39.62L140.16-39.62L138.62-32.64L143.62-32.64L143.04-29.76L138.11-29.76L134.85-12.48L134.85-12.48Q134.02-8.51 134.02-7.17L134.02-7.17L134.02-7.17Q134.02-4.10 136.70-3.46L136.70-3.46L136.70-3.46Q136.06-1.28 133.76 0L133.76 0L133.76 0Q131.46 1.28 128.19 1.28L128.19 1.28L128.19 1.28Q124.93 1.28 123.07-0.77L123.07-0.77L123.07-0.77Q121.22-2.82 121.22-6.40ZM156.99 1.28L156.99 1.28L156.99 1.28Q142.91 1.28 142.91-11.97L142.91-11.97L142.91-11.97Q142.91-21.38 148.10-27.46L148.10-27.46L148.10-27.46Q153.60-33.92 163.14-33.92L163.14-33.92L163.14-33.92Q170.05-33.92 173.57-30.72L173.57-30.72L173.57-30.72Q177.09-27.52 177.09-20.80L177.09-20.80L177.09-20.80Q177.09-10.56 171.58-4.61L171.58-4.61L171.58-4.61Q166.21 1.28 156.99 1.28ZM158.66-26.56L158.66-26.56L158.66-26.56Q157.89-24.83 157.28-22.24L157.28-22.24L157.28-22.24Q156.67-19.65 155.90-15.55L155.90-15.55L155.90-15.55Q155.14-11.46 155.14-6.40L155.14-6.40L155.14-6.40Q155.14-4.74 155.68-3.65L155.68-3.65L155.68-3.65Q156.22-2.56 157.70-2.56L157.70-2.56L157.70-2.56Q159.17-2.56 160.10-3.26L160.10-3.26L160.10-3.26Q161.02-3.97 161.73-5.63L161.73-5.63L161.73-5.63Q163.01-8.58 164.03-14.05L164.03-14.05L164.03-14.05Q165.06-19.52 165.15-21.89L165.15-21.89L165.15-21.89Q165.25-24.26 165.25-26.02L165.25-26.02L165.25-26.02Q165.25-27.78 164.74-28.93L164.74-28.93L164.74-28.93Q164.22-30.08 162.78-30.08L162.78-30.08L162.78-30.08Q161.34-30.08 160.38-29.18L160.38-29.18L160.38-29.18Q159.42-28.29 158.66-26.56ZM219.97-20.61L232.90-21.76L232.90-21.76Q228.29-11.65 228.29 0.06L228.29 0.06L228.29 0.06Q226.56 1.28 224.03 1.28L224.03 1.28L224.03 1.28Q221.50 1.28 219.90 0.10L219.90 0.10L219.90 0.10Q218.30-1.09 217.98-2.30L217.98-2.30L217.98-2.30Q216.38-0.64 213.79 0.32L213.79 0.32L213.79 0.32Q211.20 1.28 208.45 1.28L208.45 1.28L208.45 1.28Q205.70 1.28 203.30 0.38L203.30 0.38L203.30 0.38Q200.90-0.51 199.04-2.50L199.04-2.50L199.04-2.50Q194.94-6.85 194.94-15.10L194.94-15.10L194.94-15.10Q194.94-27.90 201.79-35.58L201.79-35.58L201.79-35.58Q208.83-43.52 221.31-43.52L221.31-43.52L221.31-43.52Q229.95-43.52 233.02-39.04L233.02-39.04L233.02-39.04Q233.98-37.63 233.98-35.94L233.98-35.94L233.98-35.94Q233.98-34.24 233.25-32.80L233.25-32.80L233.25-32.80Q232.51-31.36 231.36-30.21L231.36-30.21L231.36-30.21Q228.61-27.65 225.22-27.65L225.22-27.65L225.22-27.65Q223.87-27.65 222.59-28.10L222.59-28.10L222.59-28.10Q222.85-30.02 222.85-32.26L222.85-32.26L222.85-32.26Q222.85-34.50 222.69-35.52L222.69-35.52L222.69-35.52Q222.53-36.54 222.14-37.38L222.14-37.38L222.14-37.38Q221.31-39.10 219.49-39.10L219.49-39.10L219.49-39.10Q217.66-39.10 215.65-37.15L215.65-37.15L215.65-37.15Q213.63-35.20 212.03-32L212.03-32L212.03-32Q208.51-24.83 208.51-16.19L208.51-16.19L208.51-16.19Q208.51-12.22 210.05-9.41L210.05-9.41L210.05-9.41Q211.71-6.34 214.66-6.34L214.66-6.34L214.66-6.34Q215.68-6.34 216.61-6.85L216.61-6.85L216.61-6.85Q217.54-7.36 217.92-7.74L217.92-7.74L219.97-20.61ZM238.82-1.92L238.82-1.92L238.82-1.92Q237.31-3.58 236.64-6.21L236.64-6.21L236.64-6.21Q235.97-8.83 235.97-13.12L235.97-13.12L235.97-13.12Q235.97-17.41 237.44-21.31L237.44-21.31L237.44-21.31Q238.91-25.22 241.60-28.03L241.60-28.03L241.60-28.03Q247.10-33.92 256.19-33.92L256.19-33.92L256.19-33.92Q259.46-33.92 261.82-32.83L261.82-32.83L272.77-33.92L268.03-8.96L268.03-8.96Q267.84-8.19 267.84-6.78L267.84-6.78L267.84-6.78Q267.84-5.38 268.70-4.48L268.70-4.48L268.70-4.48Q269.57-3.58 270.85-3.46L270.85-3.46L270.85-3.46Q270.21-1.28 267.87 0L267.87 0L267.87 0Q265.54 1.28 262.91 1.28L262.91 1.28L262.91 1.28Q260.29 1.28 258.53 0.29L258.53 0.29L258.53 0.29Q256.77-0.70 256.26-2.37L256.26-2.37L256.26-2.37Q255.23-0.77 253.06 0.26L253.06 0.26L253.06 0.26Q250.88 1.28 247.97 1.28L247.97 1.28L247.97 1.28Q245.06 1.28 242.69 0.51L242.69 0.51L242.69 0.51Q240.32-0.26 238.82-1.92ZM252.32-27.90L252.32-27.90L252.32-27.90Q251.58-26.75 250.94-24.80L250.94-24.80L250.94-24.80Q250.30-22.85 249.25-17.63L249.25-17.63L249.25-17.63Q248.19-12.42 248.19-8.70L248.19-8.70L248.19-8.70Q248.19-4.99 248.77-3.90L248.77-3.90L248.77-3.90Q249.34-2.82 250.37-2.82L250.37-2.82L250.37-2.82Q252.42-2.82 253.92-4.77L253.92-4.77L253.92-4.77Q255.42-6.72 256-10.18L256-10.18L259.39-28.93L259.39-28.93Q258.05-30.08 256.48-30.08L256.48-30.08L256.48-30.08Q254.91-30.08 253.98-29.57L253.98-29.57L253.98-29.57Q253.06-29.06 252.32-27.90ZM291.52-3.52L291.52-3.52L291.52-3.52Q289.54 1.28 283.20 1.28L283.20 1.28L283.20 1.28Q280 1.28 277.95-0.96L277.95-0.96L277.95-0.96Q276.29-2.82 276.29-4.93L276.29-4.93L276.29-4.93Q276.29-9.73 278.53-20.22L278.53-20.22L283.20-44.80L296.19-46.08L289.98-13.70L289.98-13.70Q288.90-8.96 288.90-7.30L288.90-7.30L288.90-7.30Q288.90-3.65 291.52-3.52ZM312.26-3.52L312.26-3.52L312.26-3.52Q310.27 1.28 303.94 1.28L303.94 1.28L303.94 1.28Q300.74 1.28 298.69-0.96L298.69-0.96L298.69-0.96Q297.02-2.82 297.02-4.93L297.02-4.93L297.02-4.93Q297.02-9.73 299.26-20.22L299.26-20.22L303.94-44.80L316.93-46.08L310.72-13.70L310.72-13.70Q309.63-8.96 309.63-7.30L309.63-7.30L309.63-7.30Q309.63-3.65 312.26-3.52ZM343.62-10.82L343.62-10.82L343.62-10.82Q345.22-9.73 345.22-7.33L345.22-7.33L345.22-7.33Q345.22-4.93 344-3.39L344-3.39L344-3.39Q342.78-1.86 340.80-0.83L340.80-0.83L340.80-0.83Q336.70 1.28 332.29 1.28L332.29 1.28L332.29 1.28Q327.87 1.28 325.28 0.32L325.28 0.32L325.28 0.32Q322.69-0.64 320.96-2.43L320.96-2.43L320.96-2.43Q317.57-5.82 317.57-12.03L317.57-12.03L317.57-12.03Q317.57-21.70 322.82-27.58L322.82-27.58L322.82-27.58Q328.45-33.92 338.24-33.92L338.24-33.92L338.24-33.92Q344.32-33.92 347.33-31.36L347.33-31.36L347.33-31.36Q349.57-29.44 349.57-26.30L349.57-26.30L349.57-26.30Q349.57-15.04 330.11-15.04L330.11-15.04L330.11-15.04Q329.86-13.38 329.86-11.97L329.86-11.97L329.86-11.97Q329.86-9.02 331.17-7.90L331.17-7.90L331.17-7.90Q332.48-6.78 334.91-6.78L334.91-6.78L334.91-6.78Q337.34-6.78 339.94-7.90L339.94-7.90L339.94-7.90Q342.53-9.02 343.62-10.82ZM330.56-17.79L330.56-17.79L330.56-17.79Q335.10-17.79 337.73-20.61L337.73-20.61L337.73-20.61Q340.35-23.30 340.35-27.58L340.35-27.58L340.35-27.58Q340.35-29.06 339.81-29.86L339.81-29.86L339.81-29.86Q339.26-30.66 338.18-30.66L338.18-30.66L338.18-30.66Q337.09-30.66 336.16-30.24L336.16-30.24L336.16-30.24Q335.23-29.82 334.27-28.42L334.27-28.42L334.27-28.42Q331.90-25.22 330.56-17.79ZM371.78-17.98L371.78-17.98L371.78-17.98Q374.08-22.08 374.08-26.24L374.08-26.24L374.08-26.24Q374.08-28.99 372.10-28.99L372.10-28.99L372.10-28.99Q370.56-28.99 368.96-26.37L368.96-26.37L368.96-26.37Q367.30-23.74 366.78-20.35L366.78-20.35L363.46 0L350.21 1.28L356.74-32.64L367.30-33.92L366.14-27.46L366.14-27.46Q369.28-33.92 376.32-33.92L376.32-33.92L376.32-33.92Q380.03-33.92 382.05-32L382.05-32L382.05-32Q384.06-30.08 384.06-26.14L384.06-26.14L384.06-26.14Q384.06-22.21 381.47-19.71L381.47-19.71L381.47-19.71Q378.88-17.22 374.46-17.22L374.46-17.22L374.46-17.22Q372.54-17.22 371.78-17.98ZM405.44-7.23L405.44-7.23L405.44-7.23Q402.11-3.78 396.03-3.78L396.03-3.78L396.03-3.78Q388.42-3.78 386.82-9.34L386.82-9.34L386.82-9.34Q386.30-11.01 386.30-12.86L386.30-12.86L386.30-12.86Q386.30-14.72 386.69-16.64L386.69-16.64L389.70-32.64L402.69-33.92L399.17-15.30L399.17-15.30Q399.04-14.46 398.85-13.57L398.85-13.57L398.85-13.57Q398.66-12.67 398.66-11.74L398.66-11.74L398.66-11.74Q398.66-10.82 398.98-10.21L398.98-10.21L398.98-10.21Q399.30-9.60 399.74-9.22L399.74-9.22L399.74-9.22Q400.51-8.70 401.89-8.70L401.89-8.70L401.89-8.70Q403.26-8.70 404.45-10.37L404.45-10.37L404.45-10.37Q405.63-12.03 406.21-14.91L406.21-14.91L409.73-32.64L422.34-33.92L417.54-8.77L417.54-8.77Q415.17 3.52 410.30 8.38L410.30 8.38L410.30 8.38Q407.81 10.88 404.58 11.87L404.58 11.87L404.58 11.87Q401.34 12.86 397.18 12.86L397.18 12.86L397.18 12.86Q390.46 12.86 386.62 10.75L386.62 10.75L386.62 10.75Q382.78 8.64 382.78 5.12L382.78 5.12L382.78 5.12Q382.78 2.50 384.77 0.99L384.77 0.99L384.77 0.99Q386.75-0.51 389.82-0.51L389.82-0.51L389.82-0.51Q392.51-0.51 394.56 0.64L394.56 0.64L394.56 0.64Q395.78 1.34 396.35 2.24L396.35 2.24L396.35 2.24Q394.88 3.52 394.88 5.63L394.88 5.63L394.88 5.63Q394.88 8.45 397.44 8.45L397.44 8.45L397.44 8.45Q401.66 8.45 404.10-1.28L404.10-1.28L404.10-1.28Q404.80-4.16 405.44-7.23Z" fill="url(#editing-rainbow-gradient)"></path></g></g><style>text {
  font-size: 64px;
  font-family: Arial Black;
  dominant-baseline: central;
  text-anchor: middle;
}</style></svg>